# AST/ASF file generated using VICON BodyLanguage
# -----------------------------------------------
:version 1.10
:name VICON
:units
  mass 1.0
  length 0.45
  angle deg
:documentation
   .ast/.asf automatically generated from VICON data using
   VICON BodyBuilder and BodyLanguage model FoxedUp or BRILLIANT.MOD
:root
   order TX TY TZ RX RY RZ
   axis XYZ
   position 0 0 0  
   orientation 0 0 0 
:bonedata
  begin
     id 1 
     name lhipjoint
     direction 0.682418 -0.694059 0.22932 
     length 2.25561 
     axis 0 0 0  XYZ
  end
  begin
     id 2 
     name lfemur
     direction 0.34202 -0.939693 0  
     length 6.96448  
     axis 0 0 20  XYZ
    dof rx ry rz
    limits (-160.0 20.0)
           (-70.0 70.0)
           (-60.0 70.0)
  end
  begin
     id 3 
     name ltibia
     direction 0.34202 -0.939693 0   
     length 6.88553   
     axis 0 0 20   XYZ
    dof rx
    limits (-10.0 170.0)
  end
  begin
     id 4 
     name lfoot
     direction 0.0723587 -0.198804 0.977364   
     length 1.88518   
     axis -90 7.62852e-016 20   XYZ
    dof rx rz
    limits (-45.0 90.0)
           (-70.0 20.0)
  end
  begin
     id 5 
     name ltoes
     direction 1.53558e-011 -4.21962e-011 1   
     length 0.952124   
     axis -90 7.62852e-016 20   XYZ
    dof rx
    limits (-90.0 20.0)
  end
  begin
     id 6 
     name rhipjoint
     direction -0.657603 -0.71533 0.236348   
     length 2.18854  
     axis 0 0 0  XYZ 
  end
  begin
     id 7 
     name rfemur
     direction -0.34202 -0.939693 0   
     length 6.86686   
     axis 0 0 -20   XYZ
    dof rx ry rz
    limits (-160.0 20.0)
           (-70.0 70.0)
           (-70.0 60.0)
  end
  begin
     id 8 
     name rtibia
     direction -0.34202 -0.939693 0   
     length 6.59503   
     axis 0 0 -20   XYZ
    dof rx
    limits (-10.0 170.0)
 end
 begin
     id 9 
     name rfoot
     direction -0.101977 -0.280179 0.954516   
     length 1.93723  
     axis -90 -7.62852e-016 -20   XYZ
    dof rx rz
    limits (-45.0 90.0)
           (-20.0 70.0)
  end
  begin
     id 10 
     name rtoes
     direction -1.53564e-011 -4.21897e-011 1   
     length 0.970315   
     axis -90 -7.62852e-016 -20   XYZ
    dof rx
    limits (-90.0 20.0)
  end
  begin
     id 11 
     name lowerback
     direction -0.0339559 0.999421 -0.00235966   
     length 1.88543   
     axis 0 0 0   XYZ
    dof rx ry rz
    limits (-20.0 45.0)
           (-30.0 30.0)
           (-30.0 30.0)
  end
  begin
     id 12 
     name upperback
     direction 0.00401003 0.999739 0.0224689   
     length 1.8856   
     axis 0 0 0   XYZ
    dof rx ry rz
    limits (-20.0 45.0)
           (-30.0 30.0)
           (-30.0 30.0)
  end
  begin
     id 13 
     name thorax
     direction 0.0198619 0.999546 0.0226536   
     length 1.88352   
     axis 0 0 0   XYZ
    dof rx ry rz
    limits (-20.0 45.0)
           (-30.0 30.0)
           (-30.0 30.0)
  end
  begin
     id 14 
     name lowerneck
     direction -0.0461848 0.998632 0.0245198   
     length 1.34895   
     axis 0 0 0   XYZ
    dof rx ry rz
    limits (-20.0 45.0)
           (-30.0 30.0)
           (-30.0 30.0)
  end
  begin
     id 15 
     name upperneck
     direction -0.0180627 0.994724 -0.100984   
     length 1.35214   
     axis 0 0 0   XYZ
    dof rx ry rz
    limits (-20.0 45.0)
           (-30.0 30.0)
           (-30.0 30.0)
  end
  begin
     id 16
     name head
     direction -0.00374772 0.999293 -0.037403  
     length 1.3568  
     axis 0 0 0   XYZ
    dof rx ry rz
    limits (-20.0 45.0)
           (-30.0 30.0)
           (-30.0 30.0)
  end
  begin
     id 17 
     name lclavicle
     direction 0.971773 0.191119 0.138311  
     length 2.84954  
     axis 0 0 0   XYZ
    dof ry rz
    limits (-20.0 10.0)
           (0.0 20.0)
  end
  begin
     id 18 
     name lhumerus
     direction 1 -4.4897e-011 -2.43761e-027   
     length 4.40919   
     axis 180 -30 -90   XYZ
    dof rx ry rz
    limits (-60.0 90.0)
           (-90.0 90.0)
           (-90.0 90.0)
  end
  begin
     id 19
     name lradius
     direction 1 -4.4896e-011 -9.1621e-027   
     length 3.03857   
     axis 180 -30 -90   XYZ
    dof rx
    limits (-10.0 170.0)
  end
  begin
     id 20
     name lwrist
     direction 1 -4.4896e-011 -1.41363e-026   
     length 1.51928   
     axis 1.07133e-014 90 90   XYZ
    dof ry
    limits (-180.0 0.0)
 end
  begin
     id 21 
     name lhand
     direction 1 -4.48978e-011 -2.82725e-026   
     length 0.523208   
     axis 1.80403e-014 90 90   XYZ
    dof rx rz
    limits (-90.0 90.0)
           (-45.0 45.0)
  end
  begin
     id 22 
     name lfingers
     direction 1 -4.48977e-011 -5.6545e-026   
     length 0.421824   
     axis 3.60806e-014 90 90   XYZ
    dof rx
    limits (0.0 90.0)
  end
  begin
     id 23
     name lthumb
     direction 0.707107 -6.34962e-011 0.707107   
     length 0.605657   
     axis -90 45 2.85299e-015   XYZ
    dof rx rz
    limits (-45.0 45.0)
           (-45.0 45.0)
  end
  begin
     id 24 
     name rclavicle
     direction -0.957247 0.24311 0.156766   
     length 3.12406  
     axis 0 0 0   XYZ 
    dof ry rz
    limits (-10.0 20.0)
           (-20.0 0.0)
  end
  begin
     id 25 
     name rhumerus
     direction -1 -4.48964e-011 -1.70632e-027  
     length 4.61969   
     axis 180 30 90   XYZ
    dof rx ry rz
    limits (-90.0 60.0)
           (-90.0 90.0)
           (-90.0 90.0)
  end
  begin
     id 26 
     name rradius
     direction -1 -4.48966e-011 -6.60395e-027   
     length 3.09382   
     axis 180 30 90   XYZ
    dof rx
    limits (-10.0 170.0)
  end
  begin
     id 27 
     name rwrist
     direction -1 -4.48963e-011 -1.41363e-026   
     length 1.54691   
     axis 1.07133e-014 -90 -90   XYZ
    dof ry
    limits (-180.0 0.0)
  end
  begin
     id 28
     name rhand
     direction -1 -4.49013e-011 -2.82725e-026   
     length 0.500896   
     axis 1.80403e-014 -90 -90   XYZ
    dof rx rz
    limits (-90.0 90.0)
           (-45.0 45.0)
  end
  begin
     id 29
     name rfingers
     direction -1 -4.48902e-011 -5.6545e-026   
     length 0.403835   
     axis 3.60806e-014 -90 -90   XYZ
    dof rx
    limits (0.0 90.0)
  end
  begin
     id 30
     name rthumb
     direction -0.707107 -6.34953e-011 0.707107   
     length 0.579829   
     axis -90 -45 -2.85299e-015   XYZ
    dof rx rz
    limits (-45.0 45.0)
           (-45.0 45.0)
  end
:hierarchy
  begin
    root lhipjoint rhipjoint lowerback
    lhipjoint lfemur
    lfemur ltibia
    ltibia lfoot
    lfoot ltoes
    rhipjoint rfemur
    rfemur rtibia
    rtibia rfoot
    rfoot rtoes
    lowerback upperback
    upperback thorax
    thorax lowerneck lclavicle rclavicle
    lowerneck upperneck
    upperneck head
    lclavicle lhumerus
    lhumerus lradius
    lradius lwrist
    lwrist lhand lthumb
    lhand lfingers
    rclavicle rhumerus
    rhumerus rradius
    rradius rwrist
    rwrist rhand rthumb
    rhand rfingers
  end

#!OML:ASF E:\madness\Project 1\Capture day 1\Session 1\Female1.ASF
:FULLY-SPECIFIED
:DEGREES
299
root 7.52007 16.5162 1.86716 9.83237 -46.7825 -0.453622
lowerback -7.70308 1.0951 -2.9697
upperback -5.44945 1.54787 0.954166
thorax -1.43024 0.837566 2.74787
lowerneck 0.294332 -7.76031 -5.39558
upperneck 13.5787 -10.8376 3.2016
head 4.49807 -5.50768 1.39686
rclavicle -5.26779e-015 4.87022e-015
rhumerus -59.125 -3.61264 -80.4032
rradius 60.7643
rwrist 1.62669
rhand -11.5373 -46.5098
rfingers 7.12502
rthumb 14.5028 -75.983
lclavicle -5.26779e-015 4.87022e-015
lhumerus -59.4457 9.60879 78.0841
lradius 70.1786
lwrist -5.67791
lhand -22.5125 -13.7112
lfingers 7.12502
lthumb 3.9139 16.2326
rfemur 3.78468 9.61438 17.4032
rtibia 12.123
rfoot -20.8923 -43.0256
rtoes 26.5401
lfemur -9.13362 -12.6363 -23.0854
ltibia 10.3728
lfoot -5.73478 14.131
ltoes 14.8232
300
root 7.52556 16.5167 1.86575 9.94762 -47.0299 -0.510937
lowerback -7.74492 1.07635 -2.99394
upperback -5.46014 1.52459 1.00908
thorax -1.41923 0.827048 2.81783
lowerneck 0.541117 -7.94553 -5.31276
upperneck 13.361 -11.0803 3.07951
head 4.39076 -5.63258 1.35092
rclavicle 7.83957e-015 -7.45443e-015
rhumerus -59.3123 -3.71676 -80.2333
rradius 60.8995
rwrist 1.57358
rhand -11.2588 -46.3196
rfingers 7.12502
rthumb 14.7711 -75.7733
lclavicle 7.83957e-015 -7.45443e-015
lhumerus -59.478 9.45257 78.2227
lradius 70.4341
lwrist -5.28825
lhand -22.2623 -13.9899
lfingers 7.12502
lthumb 4.15549 15.9493
rfemur 3.5589 9.64749 17.3501
rtibia 12.27
rfoot -20.742 -42.9253
rtoes 26.0734
lfemur -9.15716 -12.6729 -23.0489
ltibia 10.2542
lfoot -5.40472 14.3449
ltoes 14.4897
301
root 7.52924 16.5175 1.86232 10.0556 -47.3521 -0.549417
lowerback -7.78297 1.0822 -3.03938
upperback -5.47607 1.53489 1.04828
thorax -1.4184 0.833863 2.8853
lowerneck 0.727414 -8.07011 -5.28406
upperneck 12.8146 -11.2142 2.8656
head 4.66265 -5.72191 1.41955
rclavicle 9.82617e-014 3.15074e-014
rhumerus -59.4493 -3.77399 -80.1288
rradius 60.9722
rwrist 1.58756
rhand -11.2704 -46.2967
rfingers 7.12502
rthumb 14.76 -75.7511
lclavicle 9.82617e-014 3.15074e-014
lhumerus -59.4712 9.42839 78.3333
lradius 70.6202
lwrist -5.31044
lhand -22.1424 -14.0444
lfingers 7.12502
lthumb 4.27126 15.8925
rfemur 3.35141 9.72147 17.2759
rtibia 12.3393
rfoot -20.4141 -42.8593
rtoes 25.4839
lfemur -9.22329 -12.517 -23.0486
ltibia 10.209
lfoot -5.08117 14.511
ltoes 13.1078
302
root 7.53389 16.5203 1.85807 10.1625 -47.5933 -0.567993
lowerback -7.76375 1.03169 -3.00356
upperback -5.52372 1.46303 1.03315
thorax -1.47177 0.797462 2.84415
lowerneck 0.859482 -8.11135 -5.30091
upperneck 12.6697 -11.2822 2.96004
head 4.59564 -5.75397 1.45947
rclavicle -5.96478e-014 -1.12313e-014
rhumerus -59.4839 -3.70502 -80.2285
rradius 60.8482
rwrist 1.64406
rhand -11.5349 -46.2469
rfingers 7.12502
rthumb 14.5052 -75.7199
lclavicle -5.96478e-014 -1.12313e-014
lhumerus -59.5079 9.51488 78.2239
lradius 70.7849
lwrist -5.69158
lhand -22.1494 -13.8943
lfingers 7.12502
lthumb 4.26453 16.0428
rfemur 3.14162 9.84124 17.2063
rtibia 12.3746
rfoot -20.2459 -42.8516
rtoes 25.5105
lfemur -9.35394 -12.3518 -23.0484
ltibia 10.2219
lfoot -5.20281 14.6229
ltoes 12.6559
303
root 7.53783 16.5209 1.85497 10.148 -47.8417 -0.574033
lowerback -7.64912 0.96325 -3.00327
upperback -5.53187 1.36857 1.04086
thorax -1.53681 0.751327 2.84379
lowerneck 0.816811 -8.13026 -5.45261
upperneck 13.0441 -11.3605 3.329
head 4.28323 -5.7702 1.452
rclavicle -9.91439e-015 -9.93923e-016
rhumerus -59.4114 -3.57501 -80.3085
rradius 60.6369
rwrist 1.68948
rhand -11.8738 -46.1622
rfingers 7.12502
rthumb 14.1786 -75.6584
lclavicle -9.91439e-015 -9.93923e-016
lhumerus -59.6012 9.54407 78.1265
lradius 71.0337
lwrist -5.75596
lhand -22.1017 -13.7319
lfingers 7.12502
lthumb 4.31055 16.2043
rfemur 3.05404 9.98155 17.1467
rtibia 12.4048
rfoot -20.3185 -42.7872
rtoes 25.9367
lfemur -9.31348 -12.3752 -23.0565
ltibia 10.2312
lfoot -5.51332 14.8129
ltoes 13.8498
304
root 7.54336 16.5216 1.85474 10.1211 -48.156 -0.654927
lowerback -7.52717 0.952302 -2.98092
upperback -5.4783 1.35131 1.09572
thorax -1.54785 0.742947 2.88502
lowerneck 0.596525 -8.17595 -5.81817
upperneck 13.2599 -11.4501 3.63999
head 4.42855 -5.81383 1.57986
rclavicle -7.24322e-015 -1.13307e-014
rhumerus -59.3654 -3.5835 -80.1991
rradius 60.586
rwrist 1.86949
rhand -11.8957 -46.1753
rfingers 7.12502
rthumb 14.1575 -75.6729
lclavicle -7.24322e-015 -1.13307e-014
lhumerus -59.5507 9.56101 78.2057
lradius 71.2008
lwrist -5.72431
lhand -22.1572 -13.812
lfingers 7.12502
lthumb 4.25699 16.1252
rfemur 3.04429 10.0413 17.1113
rtibia 12.3976
rfoot -20.1608 -42.6438
rtoes 26.1258
lfemur -9.19792 -12.362 -23.0499
ltibia 10.262
lfoot -5.56663 15.0098
ltoes 14.5519
305
root 7.551 16.5223 1.85624 10.1468 -48.4044 -0.720909
lowerback -7.47662 0.883853 -2.87347
upperback -5.41529 1.25464 1.16801
thorax -1.50189 0.691446 2.89353
lowerneck 0.509687 -8.2174 -6.26299
upperneck 13.2815 -11.5171 3.86992
head 4.49223 -5.85487 1.70725
rclavicle 1.45734e-014 -7.7526e-015
rhumerus -59.3561 -3.53998 -80.0769
rradius 60.7001
rwrist 2.15059
rhand -11.4376 -46.3689
rfingers 7.12502
rthumb 14.5989 -75.8351
lclavicle 1.45734e-014 -7.7526e-015
lhumerus -59.466 9.8399 78.2651
lradius 71.3274
lwrist -5.88834
lhand -22.3234 -13.9265
lfingers 7.12502
lthumb 4.09652 16.0138
rfemur 2.99306 9.9411 17.0506
rtibia 12.3569
rfoot -19.574 -42.5424
rtoes 25.7311
lfemur -9.20856 -12.297 -23.0576
ltibia 10.3494
lfoot -5.6837 15.1654
ltoes 15.0097
306
root 7.55333 16.5228 1.85526 10.1332 -48.6582 -0.74589
lowerback -7.41135 0.696533 -2.86444
upperback -5.36068 1.00472 1.33524
thorax -1.46654 0.567511 3.04671
lowerneck 0.510873 -8.14938 -6.71197
upperneck 13.1671 -11.4119 3.93466
head 4.48146 -5.8201 1.80262
rclavicle 1.39286e-013 2.94201e-014
rhumerus -59.2385 -3.01467 -80.06
rradius 60.7174
rwrist 2.0854
rhand -11.2362 -46.3767
rfingers 7.12502
rthumb 14.7929 -75.8287
lclavicle 1.39286e-013 2.94201e-014
lhumerus -59.5757 10.319 78.2182
lradius 71.5725
lwrist -5.97807
lhand -22.3073 -13.8082
lfingers 7.12502
lthumb 4.11201 16.1318
rfemur 2.97009 9.91419 16.9971
rtibia 12.3296
rfoot -19.1106 -42.4785
rtoes 25.0992
lfemur -9.19307 -12.3085 -23.0674
ltibia 10.4375
lfoot -6.0484 15.4116
ltoes 16.4992
307
root 7.5524 16.5249 1.85101 10.1377 -48.9963 -0.828715
lowerback -7.31679 0.550103 -2.93195
upperback -5.34972 0.811506 1.51897
thorax -1.49784 0.475705 3.26298
lowerneck 0.650016 -8.07848 -6.85568
upperneck 13.0402 -11.2953 3.77478
head 4.41289 -5.7788 1.79199
rclavicle -1.11245e-013 -2.98177e-014
rhumerus -59.231 -2.48491 -80.0406
rradius 60.6889
rwrist 1.88589
rhand -11.0998 -46.3984
rfingers 7.12502
rthumb 14.9243 -75.8407
lclavicle -1.11245e-013 -2.98177e-014
lhumerus -59.7879 10.6172 78.1815
lradius 71.8519
lwrist -5.83355
lhand -22.4556 -13.3415
lfingers 7.12502
lthumb 3.9688 16.6013
rfemur 2.93473 10.059 16.9924
rtibia 12.3689
rfoot -18.9183 -42.397
rtoes 24.7113
lfemur -9.09253 -12.2669 -23.0373
ltibia 10.4269
lfoot -6.17932 15.682
ltoes 17.2401
308
root 7.55528 16.5256 1.84519 10.0824 -49.2683 -0.88821
lowerback -7.19337 0.453303 -3.02172
upperback -5.30103 0.686021 1.63888
thorax -1.50917 0.417077 3.42978
lowerneck 1.11333 -8.34909 -6.13821
upperneck 12.1179 -11.5428 2.66488
head 4.39971 -5.93177 1.51082
rclavicle 3.57315e-014 8.54774e-015
rhumerus -59.2467 -2.25501 -80.0081
rradius 60.6678
rwrist 1.8966
rhand -11.1001 -46.4932
rfingers 7.12502
rthumb 14.924 -75.9355
lclavicle 3.57315e-014 8.54774e-015
lhumerus -59.8553 10.8468 78.199
lradius 72.123
lwrist -5.6856
lhand -22.6228 -13.1111
lfingers 7.12502
lthumb 3.80731 16.8346
rfemur 2.91696 10.1373 16.9875
rtibia 12.4665
rfoot -18.9796 -42.227
rtoes 24.8063
lfemur -8.93922 -12.1234 -23.0408
ltibia 10.3583
lfoot -6.03027 15.8148
ltoes 16.8881
309
root 7.55744 16.5221 1.84328 9.82487 -49.3349 -0.68758
lowerback -7.12592 0.351631 -3.19234
upperback -5.19664 0.561119 1.65625
thorax -1.43065 0.357269 3.53688
lowerneck 0.935772 -8.5171 -6.26267
upperneck 12.1436 -11.752 2.62375
head 4.46177 -6.03935 1.49773
rclavicle -1.24762e-013 -2.54444e-014
rhumerus -59.1629 -2.24125 -79.9378
rradius 60.5747
rwrist 1.92023
rhand -11.4556 -46.3684
rfingers 7.12502
rthumb 14.5816 -75.8358
lclavicle -1.24762e-013 -2.54444e-014
lhumerus -59.7348 10.8267 78.3028
lradius 72.3791
lwrist -5.55716
lhand -22.4563 -13.2962
lfingers 7.12502
lthumb 3.9681 16.6466
rfemur 2.97381 9.9888 16.835
rtibia 12.5368
rfoot -19.2205 -41.9887
rtoes 25.2364
lfemur -8.82459 -12.0966 -23.2126
ltibia 10.3556
lfoot -5.90065 15.8582
ltoes 16.4874
310
root 7.56045 16.5193 1.84356 9.73683 -49.4622 -0.562379
lowerback -7.16657 0.328426 -3.22501
upperback -5.14367 0.534108 1.62487
thorax -1.35083 0.342022 3.52178
lowerneck 0.699483 -8.53298 -6.69754
upperneck 12.6973 -11.8354 3.21393
head 4.28898 -6.06061 1.58058
rclavicle -6.55989e-015 -5.96354e-015
rhumerus -59.1567 -2.4183 -79.8098
rradius 60.5152
rwrist 1.96123
rhand -11.5059 -46.2594
rfingers 7.12502
rthumb 14.5331 -75.7304
lclavicle -6.55989e-015 -5.96354e-015
lhumerus -59.5552 10.5752 78.4413
lradius 72.5325
lwrist -5.3188
lhand -22.326 -13.4441
lfingers 7.12502
lthumb 4.09397 16.4963
rfemur 2.89326 9.86691 16.6823
rtibia 12.5955
rfoot -19.3674 -41.7583
rtoes 25.5344
lfemur -8.84767 -12.1393 -23.3153
ltibia 10.3767
lfoot -5.87237 15.9913
ltoes 16.4107
311
root 7.57268 16.5271 1.83461 10.2491 -49.9616 -0.969028
lowerback -7.20794 0.44087 -2.98015
upperback -5.19836 0.669039 1.68868
thorax -1.3929 0.404897 3.45767
lowerneck 1.23937 -8.84015 -6.41151
upperneck 11.767 -12.1992 2.7115
head 4.31039 -6.26316 1.55143
rclavicle 9.42985e-014 1.09332e-014
rhumerus -59.1967 -2.53293 -79.7035
rradius 60.5346
rwrist 1.88484
rhand -11.435 -46.0493
rfingers 7.12502
rthumb 14.6014 -75.5153
lclavicle 9.42985e-014 1.09332e-014
lhumerus -59.4344 10.5336 78.5409
lradius 72.6366
lwrist -5.26969
lhand -22.644 -13.8189
lfingers 7.12502
lthumb 3.78688 16.1272
rfemur 2.46529 10.1088 16.7983
rtibia 12.6152
rfoot -19.1627 -41.6414
rtoes 25.5633
lfemur -9.10377 -12.0222 -23.0213
ltibia 10.3659
lfoot -5.84573 16.3282
ltoes 16.9973
